<svg height="111pt" preserveAspectRatio="xMidYMid meet" viewBox="0 0 116 111" width="116pt" xmlns="http://www.w3.org/2000/svg"><path d="m284 864c-142-130-265-247-272-260-28-53 13-104 85-104h43v-228c0-209 2-230 18-245 16-14 43-17 168-17 114 0 155 3 170 14 17 13 19 29 22 155l4 141h59 59v-138c0-181-10-172 186-172 114 0 155 3 170 14 18 13 19 30 22 245l3 231h43c54 0 86 27 86 75 0 31-16 49-227 241-126 114-247 225-270 246-77 69-73 72-369-198zm364 154c244-219 461-422 466-435 11-29-14-43-75-43h-59v-245-245h-150-149l-3 153-3 152-97 3-98 3v-156-155h-150-150l-2 242-3 243-62 3c-63 3-80 16-68 51 8 21 516 481 532 481 7 0 39-24 71-52z" transform="matrix(.1 0 0 -.1 0 111)"/></svg>